<svg xmlns="http://www.w3.org/2000/svg" width="40" height="40" viewBox="0 0 24 24" fill="none" stroke="#8b7cf6" stroke-width="2" stroke-linecap="round" stroke-linejoin="round">
  <path d="M20 13c0 5-3.5 7.5-7.66 8.95a1 1 0 0 1-.67-.01C7.5 20.5 4 18 4 13V6a1 1 0 0 1 1-1c2 0 4.5-1.2 6.24-2.72a1.17 1.17 0 0 1 1.52 0C14.51 3.81 17 5 19 5a1 1 0 0 1 1 1z"
    fill="#f4f5f7" />
  
  <g transform="translate(7, 7) scale(0.4166)">
    <path d="M12 10a2 2 0 0 0-2 2c0 1.02-.1 2.51-.26 4" />
    <path d="M14 13.12c0 2.38 0 6.38-1 8.88" />
    <path d="M17.29 21.02c.12-.6.43-2.3.5-3.02" />
    <path d="M2 12a10 10 0 0 1 18-6" />
    <path d="M2 16h.01" />
    <path d="M21.8 16c.2-2 .131-5.354 0-6" />
    <path d="M5 19.5C5.5 18 6 15 6 12a6 6 0 0 1 .34-2" />
    <path d="M8.65 22c.21-.66.45-1.32.57-2" />
    <path d="M9 6.8a6 6 0 0 1 9 5.2v2" />
  </g>

  <g transform="translate(12, 12) scale(0.5)">
    <path d="m21 21-4.34-4.34" />
    <circle cx="11" cy="11" r="8" />
  </g>

</svg>